<?xml version="1.0" encoding="utf-8"?>
<!-- Generator: Adobe Illustrator 22.1.0, SVG Export Plug-In . SVG Version: 6.00 Build 0)  -->
<svg version="1.1" id="Layer_1" xmlns="http://www.w3.org/2000/svg" xmlns:xlink="http://www.w3.org/1999/xlink" x="0px" y="0px"
	 viewBox="0 0 84.8 15.4" style="enable-background:new 0 0 84.8 15.4;" xml:space="preserve">
<style type="text/css">
	.st0{fill:#fff;}
	.st1{fill:#2BDE73;}
</style>
<g>
	<g>
		<path class="st0" d="M41,0.4c2.7,0,4.5,1.5,4.5,3.9c0,1.1-0.4,2-1.1,2.5c1.4,0.7,2.1,1.9,2.1,3.7c0,2.5-2,4.6-4.8,4.6H31.6V0.4H41
			z M34.9,6h6.2c0.7,0,1.2-0.7,1.2-1.3c0-0.6-0.3-1.4-1.5-1.4h-6V6z M34.9,12h6.7c1.1,0,1.7-0.7,1.7-1.6c0-1-0.7-1.6-1.6-1.6h-6.8
			V12z"/>
		<path class="st0" d="M51.5,0.4V15h-3.3V0.4H51.5z"/>
		<path class="st0" d="M68.5,0.4v3h-6V15h-3.3V3.3h-6v-3H68.5z"/>
		<path class="st0" d="M82.8,4.6C81,3.4,79.3,3,76.9,3c-2.9,0-3.6,0.7-3.6,1.6c0,0.8,0.8,1.1,1.9,1.2l4.4,0.5
			c3.1,0.4,5.1,1.7,5.1,4.4c0,3.3-3.2,4.8-7.6,4.8c-3,0-5.3-0.6-7.6-2.4l1.6-2.6c2,1.4,4,2,6.4,2c2.3,0,4-0.6,4-1.8
			c0-0.8-0.4-1.2-1.7-1.3l-4.9-0.6c-3-0.3-4.8-1.5-4.8-4.2c0-3.1,3.1-4.5,6.8-4.5c2.7,0,5.1,0.5,7.4,2.2L82.8,4.6z"/>
	</g>
	<path class="st1" d="M23,7.4c1-0.6,1.6-1.7,1.6-2.6c0-3.5-2.8-4.7-7.4-4.7H6.8C2.2,0.1,0,3.3,0,7.7c0,4.1,2.1,7.7,6.8,7.7h10.7
		c5.5,0,7.5-2.1,7.5-4.9C25.1,8.9,24.4,8,23,7.4z M7.3,12.5c-2.3,0-3.9-1.2-4.1-3.6c0.2,0,2.5-0.2,4.4-0.2c2.6,0,3.6,0.4,3.6,1.8
		S9.7,12.5,7.3,12.5z M17.4,12.5h-4.1c0,0,1.1-0.7,1.1-2.3c0-3.2-3-4.4-6.5-4.4c-1.2,0-4.2,0.3-4.7,0.4l0-0.1C3.5,4.2,4.6,2.9,7,2.9
		c0,0,10.8,0,11,0c2.5,0,3.4,0.7,3.4,1.8c0,0.8-0.3,1.4-1.7,1.4h-3.1v2.8h2.9c1.6,0,2.4,0.7,2.4,1.7C21.8,12.3,20.4,12.5,17.4,12.5z
		"/>
</g>
</svg>
