<?xml version="1.0" encoding="utf-8"?>
<!-- Generator: Adobe Illustrator 19.0.0, SVG Export Plug-In . SVG Version: 6.00 Build 0)  -->
<svg version="1.1" id="Layer_1" xmlns="http://www.w3.org/2000/svg" xmlns:xlink="http://www.w3.org/1999/xlink" x="0px" y="0px"
	 viewBox="0 0 7.3 7" style="enable-background:new 0 0 7.3 7;" xml:space="preserve">
<style type="text/css">
	.st0{fill:#FFFFFF;}
</style>
<g>
	<path class="st0" d="M7.3,3.4L6.5,3.6l0.7,3.2H6.8L6.3,6.2C5.3,6.7,4.4,7,3.4,7C2.5,7,1.6,6.8,1,6.5C0.4,6.2,0,5.6,0,4.8
		C0,4,0.4,3.5,1.1,3.2C0.7,2.9,0.5,2.4,0.5,1.9C0.5,1.4,0.7,1,1,0.7C1.7,0.2,2.7,0,3.7,0c1.1,0,2,0.2,3,0.7L6.2,1.4
		C5.4,1,4.7,0.8,3.6,0.8C2.1,0.8,1.4,1.2,1.4,2c0,0.6,0.3,0.9,0.9,0.9h5V3.4z M6,5.4L5.6,3.7H2.3C1.5,3.7,1,4.1,1,4.7
		c0,1,0.9,1.4,2.3,1.4C4.3,6.1,5.1,5.9,6,5.4z"/>
</g>
</svg>
