<?xml version="1.0" encoding="utf-8"?>
<!-- Generator: Adobe Illustrator 19.0.0, SVG Export Plug-In . SVG Version: 6.00 Build 0)  -->
<svg version="1.1" id="Layer_1" xmlns="http://www.w3.org/2000/svg" xmlns:xlink="http://www.w3.org/1999/xlink" x="0px" y="0px"
	 viewBox="0 0 91.3 23.8" style="enable-background:new 0 0 91.3 23.8;" xml:space="preserve">
<style type="text/css">
	.st0{fill-rule:evenodd;clip-rule:evenodd;fill:#0095DA;}
	.st1{clip-path:url(#SVGID_2_);}
	.st2{fill-rule:evenodd;clip-rule:evenodd;fill:#00AEEF;}
	.st3{fill-rule:evenodd;clip-rule:evenodd;fill:#007DC5;}
	.st4{fill-rule:evenodd;clip-rule:evenodd;fill:#0066B3;}
	.st5{fill-rule:evenodd;clip-rule:evenodd;fill:#44C8F5;}
	.st6{fill-rule:evenodd;clip-rule:evenodd;fill:#ED1C24;}
	.st7{clip-path:url(#SVGID_4_);}
	.st8{fill-rule:evenodd;clip-rule:evenodd;fill:#F15B40;}
	.st9{fill-rule:evenodd;clip-rule:evenodd;fill:#790000;}
	.st10{fill-rule:evenodd;clip-rule:evenodd;fill:#C4161C;}
	.st11{fill-rule:evenodd;clip-rule:evenodd;fill:#9E0B0F;}
	.st12{fill-rule:evenodd;clip-rule:evenodd;fill:#FFFFFF;}
</style>
<g>
	<path class="st0" d="M20.8,1.6l-1.2,6.3l-1.2,6.3c-0.2,1.4-0.9,1.8-2,0.9l-5-4.3L6.3,6.3C5.5,5.5,5.8,4.8,6.8,4.4L13,2.2l6-2.1
		C20.2-0.3,21,0.3,20.8,1.6z"/>
	<g>
		<defs>
			<path id="SVGID_1_" d="M20.8,1.6l-1.2,6.3l-1.2,6.3c-0.2,1.4-0.9,1.8-2,0.9l-5-4.3L6.3,6.3C5.5,5.5,5.8,4.8,6.8,4.4L13,2.2l6-2.1
				C20.2-0.3,21,0.3,20.8,1.6z"/>
		</defs>
		<clipPath id="SVGID_2_">
			<use xlink:href="#SVGID_1_"  style="overflow:visible;"/>
		</clipPath>
		<g class="st1">
			<g>
				<polygon class="st2" points="14.7,6.9 17.4,6 20.2,5 18,3.1 15.7,1.2 15.2,4.1 				"/>
				<polygon class="st2" points="13.6,12.7 16.3,11.7 19.1,10.8 16.9,8.9 14.7,6.9 14.1,9.8 				"/>
				<polygon class="st0" points="15.7,1.2 15.2,4.1 14.6,6.9 12.4,5 10.2,3.1 12.9,2.1 				"/>
				<polygon class="st3" points="9.1,8.8 11.9,7.9 14.6,6.9 12.4,5 10.2,3.1 9.6,6 				"/>
				<polygon class="st4" points="10.2,3.1 9.6,6 9.1,8.8 6.9,6.9 4.6,5 7.4,4 				"/>
				<polygon class="st0" points="14.6,7 14.1,9.8 13.6,12.7 11.3,10.8 9.1,8.9 11.9,7.9 				"/>
				<polygon class="st5" points="21.3,-0.7 20.7,2.2 20.2,5 18,3.1 15.7,1.2 18.5,0.2 				"/>
				<polygon class="st5" points="20.2,5 19.6,7.9 19.1,10.8 16.9,8.9 14.7,6.9 17.4,6 				"/>
				<polygon class="st5" points="19.1,10.8 18.6,13.7 18,16.6 15.8,14.6 13.6,12.7 16.3,11.8 				"/>
			</g>
		</g>
	</g>
	<path class="st6" d="M1.8,23.7l6-2.1l6-2.1c1.4-0.4,1.7-1.2,0.5-2.1l-5-4.3L4.3,8.6C3.4,8,2.7,8.4,2.5,9.4l-1.2,6.5l-1.2,6.3
		C-0.2,23.4,0.5,24.1,1.8,23.7z"/>
	<g>
		<defs>
			<path id="SVGID_3_" d="M1.8,23.7l6-2.1l6-2.1c1.4-0.4,1.7-1.2,0.5-2.1l-5-4.3L4.3,8.6C3.4,8,2.7,8.4,2.5,9.4l-1.2,6.5l-1.2,6.3
				C-0.2,23.4,0.5,24.1,1.8,23.7z"/>
		</defs>
		<clipPath id="SVGID_4_">
			<use xlink:href="#SVGID_3_"  style="overflow:visible;"/>
		</clipPath>
		<g class="st7">
			<g>
				<polygon class="st8" points="10.7,20.7 13.4,19.7 16.2,18.8 14,16.8 11.7,14.9 11.2,17.8 				"/>
				<polygon class="st9" points="1.7,12.9 4.5,12 7.2,11 5,9.1 2.8,7.2 2.3,10.1 				"/>
				<polygon class="st10" points="0.6,18.7 3.4,17.8 6.2,16.8 3.9,14.9 1.7,13 1.2,15.8 				"/>
				<polygon class="st8" points="-0.5,24.5 2.3,23.5 5.1,22.6 2.9,20.7 0.6,18.7 0.1,21.6 				"/>
				<polygon class="st6" points="11.7,14.9 11.2,17.8 10.7,20.7 8.4,18.7 6.2,16.8 9,15.9 				"/>
				<polygon class="st11" points="7.2,11 6.7,13.9 6.2,16.8 3.9,14.9 1.7,13 4.5,12 				"/>
				<polygon class="st6" points="6.2,16.8 5.6,19.7 5.1,22.6 2.9,20.6 0.6,18.7 3.4,17.8 				"/>
				<polygon class="st10" points="6.2,16.8 9,15.8 11.7,14.9 9.5,13 7.3,11 6.7,13.9 				"/>
				<polygon class="st8" points="5.1,22.6 7.9,21.6 10.6,20.7 8.4,18.7 6.2,16.8 5.7,19.7 				"/>
			</g>
		</g>
	</g>
	<path class="st12" d="M27,18.8c-0.7,1.7-3.1,0.7-2.3-1l7.5-14.8C32.6,2,34,2,34.5,3.1L42,17.8c0.8,1.5-1.4,2.6-2.2,1.3l-2.3-4.5
		C32.9,14.5,27.8,17,27,18.8L27,18.8z M29.3,14.1c2.3-1.3,4.6-1.7,7.1-1.8l-3-6.1L29.3,14.1z"/>
	<path class="st12" d="M44.1,18.4l0-10.5c0-0.6,0.9-1.2,1.6-1.3c0.7-0.1,1-0.1,1,0.2v5.4h4.5c2.9-0.2,4.2-1.5,4.1-3.7
		c0-2.2-2-3.8-4.1-3.8h-4.7c-1,0-2,0.3-2.5,1V3.5c0-0.6,0.7-1.3,1.3-1.3h5.7c3.8,0,6.7,2.4,6.8,6.3c0.1,3.8-2.3,5.9-6.8,6.1h-4.5
		v3.8C46.6,20.1,44.1,20.1,44.1,18.4z"/>
	<path class="st12" d="M61.7,6.5C61,6.6,60,7.2,60,7.8v10.1c0,1.1,0.6,1.7,1.7,1.8h11c1.5,0,1.6-2.4,0-2.4H62.6v-5h7.7
		c1.4,0,1.5-2.4,0-2.4h-7.7v-3C62.6,6.5,62.4,6.4,61.7,6.5L61.7,6.5z M60,3.8c0-1,0.5-1.5,1.5-1.5h11.1c1.4,0,1.4,2.4,0,2.4H62.4
		c-1,0-1.9,0.3-2.4,1V3.8z"/>
	<path class="st12" d="M81.7,10.9L76,4.3c-1-1.1,1-2.7,1.9-1.7l5.5,6.5l5.4-6.4c1.1-1.2,3,0.4,1.9,1.7L85,10.9l5.8,6.6
		c1.2,1.4-0.8,3-1.9,1.7l-5.5-6.5l-5.7,6.6c-1.1,1.2-3.1-0.3-1.9-1.7L81.7,10.9z"/>
</g>
</svg>
