<?xml version="1.0" encoding="utf-8"?>
<!-- Generator: Adobe Illustrator 24.0.1, SVG Export Plug-In . SVG Version: 6.00 Build 0)  -->
<svg version="1.1" id="Layer_1" xmlns="http://www.w3.org/2000/svg" xmlns:xlink="http://www.w3.org/1999/xlink" x="0px" y="0px"
	 viewBox="0 0 330 151" style="enable-background:new 0 0 330 151;" xml:space="preserve">
<style type="text/css">
	.st0{fill:#143C8A;}
</style>
<g>
	<path class="st0" d="M0,0v12.6c4.6-2.2,11.4-4.6,20.2-4.6c16.5,0,24.1,10.5,24.1,10.5s9.8,4,16.6,9.2c6.9,5.2,12.4,10.9,12.9,11.7
		s1.7,3.7-2.5,5.1c-4.2,1.4-12.6,2.9-21.1,2.9c0,0-5.6,9.9-14.4,12.9c-8.9,3.1-19.1,0.1-19.6,8.1c-0.3,5.5,4.6,12.1,6.5,14.8
		c1.9,2.6,23.1,23.6,21.9,55.7c-0.3,6.9-1.4,12.1-1.4,12.1l-8.6,0c1-3.7,1.3-7.6,1.3-7.6c0.1-1.1,0.2-2.1,0.3-3.2
		c0.6-13.1-4.1-29.3-13.9-42.3C12.4,84.7,6.1,75.1,6.1,67.1s5.9-11.8,10.1-12.8c4.2-0.9,15.3-0.9,19.3-4.3c4-3.3,6.2-8,5.8-13.8
		c-0.4-5.9-1.9-18.6-21.9-19.6C12.4,16.4,5,19.2,0,23v128h330V0H0z M22,26.3c0.6-0.7,1.5-1,2.6-1.1c1.6,0,3.4,0.7,4.8,2.1
		c1.5,1.4,2.3,3.2,2.3,4.7c0,1-0.3,1.8-0.9,2.5c-1.7,1.7-4.9,1.3-7.3-1.1c-1.4-1.3-2.3-3.1-2.3-4.6C21.1,27.8,21.4,26.9,22,26.3z
		 M111.4,86.2c0,13.7-9.8,23.6-23.8,23.6c-7.2,0-15.2-3.1-20.8-7.5l8.6-21.3c1.3,3.3,2.8,7.3,6.7,7.3c4.1,0,4.4-4.6,4.4-7.5v-41
		h24.8C111.4,39.7,111.4,86.2,111.4,86.2z M164.5,108.7h-24.8V78.9l-24.3-39.2h28.7l7.8,18h0.7c0.7-2.2,1.4-4.4,2.3-6.5l5-11.6h28.6
		l-23.9,39.2V108.7z M209.7,109.7L209.7,109.7c-8.8,0-19-2.4-26.9-6.3l7.8-19.4l1.3,1c4.5,3.5,10,6.3,15.8,6.3c2.5,0,6.5-1,6.5-4.1
		c0-3.1-3.3-3.4-5.6-3.8l-5.1-0.9c-9.9-1.7-18.2-7.5-18.2-18.3c0-16.4,15.1-25.5,30.3-25.5c8,0,15.3,1.9,22.1,6l-6.9,17.7
		c-4.3-2.9-9.2-5.2-14.7-5.2c-2.2,0-5.5,0.8-5.5,3.7c0,2.6,3.2,2.9,5.1,3.4l5.8,1.3c10.7,2.4,18.5,8.1,18.5,19.8
		C240,101.6,224.8,109.7,209.7,109.7z M288.6,108.7l-12-20.9c-1.5-2.7-3.7-5.2-4.3-8.1h-0.6l0.6,28.9h-24.7v-69h24.7l-0.6,29.9h0.6
		c0.6-2.8,2.1-5.3,3.5-7.8L288,39.7h27.7l-21.8,33.6l24.2,35.4H288.6z"/>
	<path class="st0" d="M59.5,40c4,0.2,3.4-1.7,3.4-1.7C61.1,36.8,50,30.7,50,30.7c-1.5,4,0.6,8.6,0.6,8.6S55.5,39.9,59.5,40z"/>
</g>
</svg>
